# xmcd
#
# Track frame offsets: 
#        150
#        16752
#        36945
#
# Disc length: 702 seconds
#
# Revision: 0
# Processed by: cddbd v1.5.2PL0 Copyright (c) Steve Scherf et al.
# Submitted via: ExactAudioCopy v0.99pb5
#
DISCID=1802bc03
DTITLE=YOR123 and Skandaali - Keep Distance [CDS)
DYEAR=2004
DGENRE=Hip-Hop
TTITLE0=Keep Distance (feat. Jeru The Damaja)
TTITLE1=Mikit Saa Kyytii (feat. Ayesha)
TTITLE2=Keep Distance (Accapella) (feat. Jeru The Damaja)
EXTD=
EXTT0=
EXTT1=
EXTT2=
PLAYORDER=
